# Blender v2.76 (sub 0) OBJ File: ''
# www.blender.org
mtllib cylinder.mtl
o Cylinder
v 0.402681 -0.288601 -0.086567
v 0.402681 1.711399 -0.086567
v 0.597772 -0.288601 -0.067352
v 0.597772 1.711399 -0.067352
v 0.785365 -0.288601 -0.010447
v 0.785365 1.711399 -0.010447
v 0.958251 -0.288601 0.081963
v 0.958251 1.711399 0.081963
v 1.109788 -0.288601 0.206326
v 1.109788 1.711399 0.206326
v 1.234151 -0.288601 0.357863
v 1.234151 1.711399 0.357863
v 1.326561 -0.288601 0.530750
v 1.326561 1.711399 0.530750
v 1.383466 -0.288601 0.718343
v 1.383466 1.711399 0.718343
v 1.402681 -0.288601 0.913433
v 1.402681 1.711399 0.913433
v 1.383466 -0.288601 1.108523
v 1.383466 1.711399 1.108523
v 1.326561 -0.288601 1.296116
v 1.326561 1.711399 1.296116
v 1.234151 -0.288601 1.469003
v 1.234151 1.711399 1.469003
v 1.109788 -0.288601 1.620540
v 1.109788 1.711399 1.620540
v 0.958251 -0.288601 1.744903
v 0.958251 1.711399 1.744903
v 0.785365 -0.288601 1.837313
v 0.785365 1.711399 1.837313
v 0.597771 -0.288601 1.894218
v 0.597771 1.711399 1.894218
v 0.402681 -0.288601 1.913433
v 0.402681 1.711399 1.913433
v 0.207590 -0.288601 1.894218
v 0.207590 1.711399 1.894218
v 0.019997 -0.288601 1.837312
v 0.019997 1.711399 1.837312
v -0.152890 -0.288601 1.744902
v -0.152890 1.711399 1.744902
v -0.304426 -0.288601 1.620539
v -0.304426 1.711399 1.620539
v -0.428789 -0.288601 1.469003
v -0.428789 1.711399 1.469003
v -0.521199 -0.288601 1.296116
v -0.521199 1.711399 1.296116
v -0.578104 -0.288601 1.108522
v -0.578104 1.711399 1.108522
v -0.597319 -0.288601 0.913432
v -0.597319 1.711399 0.913432
v -0.578104 -0.288601 0.718342
v -0.578104 1.711399 0.718342
v -0.521198 -0.288601 0.530748
v -0.521198 1.711399 0.530748
v -0.428788 -0.288601 0.357862
v -0.428788 1.711399 0.357862
v -0.304425 -0.288601 0.206325
v -0.304425 1.711399 0.206325
v -0.152888 -0.288601 0.081963
v -0.152888 1.711399 0.081963
v 0.019999 -0.288601 -0.010447
v 0.019999 1.711399 -0.010447
v 0.207592 -0.288601 -0.067353
v 0.207592 1.711399 -0.067353
vn 0.098000 0.000000 -0.995200
vn 0.290300 0.000000 -0.956900
vn 0.471400 0.000000 -0.881900
vn 0.634400 0.000000 -0.773000
vn 0.773000 0.000000 -0.634400
vn 0.881900 0.000000 -0.471400
vn 0.956900 0.000000 -0.290300
vn 0.995200 0.000000 -0.098000
vn 0.995200 0.000000 0.098000
vn 0.956900 0.000000 0.290300
vn 0.881900 0.000000 0.471400
vn 0.773000 0.000000 0.634400
vn 0.634400 0.000000 0.773000
vn 0.471400 0.000000 0.881900
vn 0.290300 0.000000 0.956900
vn 0.098000 0.000000 0.995200
vn -0.098000 0.000000 0.995200
vn -0.290300 0.000000 0.956900
vn -0.471400 0.000000 0.881900
vn -0.634400 0.000000 0.773000
vn -0.773000 0.000000 0.634400
vn -0.881900 0.000000 0.471400
vn -0.956900 0.000000 0.290300
vn -0.995200 0.000000 0.098000
vn -0.995200 0.000000 -0.098000
vn -0.956900 0.000000 -0.290300
vn -0.881900 0.000000 -0.471400
vn -0.773000 0.000000 -0.634400
vn -0.634400 0.000000 -0.773000
vn -0.471400 0.000000 -0.881900
vn 0.000000 1.000000 0.000000
vn -0.098000 0.000000 -0.995200
vn -0.290300 0.000000 -0.956900
vn 0.000000 -1.000000 0.000000
usemtl None
s off
f 2//1 4//1 3//1
f 4//2 6//2 5//2
f 6//3 8//3 7//3
f 8//4 10//4 9//4
f 10//5 12//5 11//5
f 12//6 14//6 13//6
f 14//7 16//7 15//7
f 16//8 18//8 17//8
f 18//9 20//9 19//9
f 20//10 22//10 21//10
f 22//11 24//11 23//11
f 24//12 26//12 25//12
f 26//13 28//13 27//13
f 28//14 30//14 29//14
f 30//15 32//15 31//15
f 32//16 34//16 33//16
f 34//17 36//17 35//17
f 36//18 38//18 37//18
f 38//19 40//19 39//19
f 40//20 42//20 41//20
f 42//21 44//21 43//21
f 44//22 46//22 45//22
f 46//23 48//23 47//23
f 48//24 50//24 49//24
f 50//25 52//25 51//25
f 52//26 54//26 53//26
f 54//27 56//27 55//27
f 56//28 58//28 57//28
f 58//29 60//29 59//29
f 60//30 62//30 61//30
f 38//31 22//31 6//31
f 64//32 2//32 1//32
f 62//33 64//33 63//33
f 31//34 47//34 63//34
f 1//1 2//1 3//1
f 3//2 4//2 5//2
f 5//3 6//3 7//3
f 7//4 8//4 9//4
f 9//5 10//5 11//5
f 11//6 12//6 13//6
f 13//7 14//7 15//7
f 15//8 16//8 17//8
f 17//9 18//9 19//9
f 19//10 20//10 21//10
f 21//11 22//11 23//11
f 23//12 24//12 25//12
f 25//13 26//13 27//13
f 27//14 28//14 29//14
f 29//15 30//15 31//15
f 31//16 32//16 33//16
f 33//17 34//17 35//17
f 35//18 36//18 37//18
f 37//19 38//19 39//19
f 39//20 40//20 41//20
f 41//21 42//21 43//21
f 43//22 44//22 45//22
f 45//23 46//23 47//23
f 47//24 48//24 49//24
f 49//25 50//25 51//25
f 51//26 52//26 53//26
f 53//27 54//27 55//27
f 55//28 56//28 57//28
f 57//29 58//29 59//29
f 59//30 60//30 61//30
f 6//31 4//31 2//31
f 2//31 64//31 6//31
f 62//31 60//31 58//31
f 58//31 56//31 54//31
f 54//31 52//31 50//31
f 50//31 48//31 46//31
f 46//31 44//31 38//31
f 42//31 40//31 38//31
f 38//31 36//31 34//31
f 34//31 32//31 38//31
f 30//31 28//31 26//31
f 26//31 24//31 22//31
f 22//31 20//31 18//31
f 18//31 16//31 22//31
f 14//31 12//31 10//31
f 10//31 8//31 6//31
f 6//31 64//31 62//31
f 62//31 58//31 6//31
f 54//31 50//31 38//31
f 44//31 42//31 38//31
f 38//31 32//31 30//31
f 30//31 26//31 38//31
f 22//31 16//31 14//31
f 14//31 10//31 22//31
f 6//31 58//31 54//31
f 50//31 46//31 38//31
f 38//31 26//31 22//31
f 22//31 10//31 6//31
f 6//31 54//31 38//31
f 63//32 64//32 1//32
f 61//33 62//33 63//33
f 63//34 1//34 3//34
f 3//34 5//34 7//34
f 7//34 9//34 15//34
f 11//34 13//34 15//34
f 15//34 17//34 19//34
f 19//34 21//34 15//34
f 23//34 25//34 31//34
f 27//34 29//34 31//34
f 31//34 33//34 35//34
f 35//34 37//34 31//34
f 39//34 41//34 43//34
f 43//34 45//34 47//34
f 47//34 49//34 55//34
f 51//34 53//34 55//34
f 55//34 57//34 63//34
f 59//34 61//34 63//34
f 63//34 3//34 15//34
f 9//34 11//34 15//34
f 15//34 21//34 23//34
f 25//34 27//34 31//34
f 31//34 37//34 39//34
f 39//34 43//34 47//34
f 49//34 51//34 55//34
f 57//34 59//34 63//34
f 3//34 7//34 15//34
f 15//34 23//34 31//34
f 31//34 39//34 47//34
f 47//34 55//34 63//34
f 63//34 15//34 31//34
